<?xml version="1.0" standalone="no"?>
<!DOCTYPE svg PUBLIC "-//W3C//DTD SVG 20010904//EN"
 "http://www.w3.org/TR/2001/REC-SVG-20010904/DTD/svg10.dtd">
<svg version="1.0" xmlns="http://www.w3.org/2000/svg"
 width="700.000000pt" height="700.000000pt" viewBox="0 0 700.000000 700.000000"
 preserveAspectRatio="xMidYMid meet">
<metadata>
Created by potrace 1.14, written by Peter Selinger 2001-2017
</metadata>
<g transform="translate(0.000000,700.000000) scale(0.100000,-0.100000)"
fill="#000000" stroke="none">
<path d="M1230 6993 c-313 -31 -584 -154 -802 -361 -205 -195 -338 -437 -395
-720 -17 -82 -18 -227 -18 -2412 0 -2185 1 -2330 18 -2412 83 -409 329 -740
698 -937 93 -49 221 -94 352 -123 l102 -23 2315 0 c2192 0 2320 1 2404 18 284
58 505 175 702 371 193 194 315 424 371 701 17 85 18 209 18 2410 l0 2320 -23
105 c-79 356 -276 649 -571 845 -147 98 -279 153 -473 198 l-93 21 -2285 2
c-1257 0 -2301 -1 -2320 -3z m3116 -2180 c428 -434 911 -922 1073 -1086 l296
-298 -205 6 c-113 3 -251 8 -307 10 l-103 6 0 -1051 0 -1050 -370 0 -370 0 0
48 c0 43 3 49 37 72 82 56 146 171 159 285 l7 55 -295 0 c-162 0 -297 -2 -300
-5 -2 -3 -1 -33 4 -68 12 -90 57 -175 128 -241 56 -52 60 -58 60 -100 l0 -46
-345 0 -345 0 0 644 c0 612 -1 647 -20 707 -36 117 -107 186 -217 209 -63 14
-63 15 -63 221 l0 148 40 11 c22 6 44 19 50 30 15 29 12 176 -4 209 -8 15 -26
32 -41 39 -35 16 -354 16 -389 1 -39 -18 -56 -66 -56 -156 0 -70 3 -82 23
-100 12 -11 34 -23 50 -27 l27 -6 0 -179 0 -179 -42 -7 c-130 -21 -216 -110
-247 -253 -7 -36 -11 -254 -11 -682 l0 -630 -295 0 -295 0 0 658 c0 361 -3
829 -7 1039 l-6 383 -277 2 -277 3 1070 1083 c588 595 1073 1082 1077 1082 4
0 358 -354 786 -787z"/>
</g>
</svg>
